<?xml version="1.0" standalone="no"?>
<!DOCTYPE svg PUBLIC "-//W3C//DTD SVG 20010904//EN"
 "http://www.w3.org/TR/2001/REC-SVG-20010904/DTD/svg10.dtd">
<svg version="1.0" xmlns="http://www.w3.org/2000/svg"
 width="465.000000pt" height="722.000000pt" viewBox="0 0 465.000000 722.000000"
 preserveAspectRatio="xMidYMid meet">

<g transform="translate(0.000000,722.000000) scale(0.100000,-0.100000)"
fill="#000000" stroke="none">
<path d="M2192 6621 c-18 -89 -57 -173 -191 -421 -288 -534 -327 -774 -189
-1170 77 -219 158 -330 392 -534 37 -32 72 -70 77 -83 6 -17 5 -63 -2 -132 -6
-58 -14 -259 -18 -446 l-6 -340 -18 60 c-10 33 -33 85 -52 115 -52 86 -61 127
-45 209 17 90 9 210 -20 284 -64 168 -258 369 -450 467 -135 68 -353 120 -508
120 -38 0 -161 -9 -273 -20 -112 -11 -231 -21 -264 -22 -46 -2 -60 -6 -59 -18
1 -8 42 -69 91 -135 50 -66 130 -174 178 -240 176 -239 310 -363 489 -450 163
-80 317 -102 481 -69 119 24 223 24 258 1 32 -21 109 -175 132 -262 33 -130
46 -265 52 -515 6 -289 -2 -371 -47 -467 -47 -102 -139 -186 -250 -230 -39
-15 -85 -17 -335 -18 -287 -1 -291 -1 -380 -29 -87 -26 -138 -49 -293 -130
-92 -48 -165 -56 -278 -31 -95 22 -267 26 -285 7 -10 -10 -1 -12 49 -12 34 0
126 -14 204 -31 187 -40 211 -37 379 47 72 36 137 64 146 62 10 -2 -12 -31
-70 -91 -69 -70 -100 -94 -163 -124 -67 -32 -90 -38 -166 -41 -49 -3 -153 1
-231 7 -96 8 -150 9 -167 2 -23 -9 -22 -10 15 -11 22 0 96 -12 165 -25 69 -14
147 -25 173 -25 51 0 179 26 212 43 19 10 19 9 2 -10 -10 -12 -45 -35 -77 -52
-49 -26 -81 -35 -182 -47 -141 -17 -179 -27 -203 -54 -20 -22 -14 -25 17 -9
11 6 82 17 157 25 232 24 259 39 461 245 126 129 166 163 215 186 l60 28 292
0 c161 0 293 -3 293 -8 0 -14 -124 -86 -220 -128 -328 -142 -664 -309 -756
-375 -43 -31 -103 -67 -134 -81 -30 -13 -83 -42 -117 -64 -93 -61 -134 -70
-303 -68 -139 2 -148 1 -204 -24 -67 -31 -70 -46 -4 -24 76 26 120 28 203 12
44 -8 95 -15 113 -15 19 0 32 -5 32 -13 0 -22 -92 -103 -170 -148 -88 -51
-177 -136 -208 -198 -12 -25 -19 -47 -16 -50 2 -3 39 31 82 76 49 51 97 90
132 108 91 46 140 84 245 189 65 65 121 112 158 130 31 17 59 27 62 24 3 -3 1
-18 -5 -34 -7 -16 -22 -81 -36 -144 -36 -171 -51 -218 -96 -293 -46 -78 -151
-194 -218 -240 -59 -41 -32 -48 41 -12 147 75 277 268 324 481 44 201 71 261
147 329 56 50 142 93 206 102 42 6 45 5 38 -13 -17 -40 -27 -81 -37 -149 -15
-99 -34 -154 -99 -285 -71 -141 -104 -233 -124 -340 -17 -86 -22 -270 -8 -270
4 0 13 46 20 103 20 180 57 291 160 478 62 116 77 155 102 276 45 217 119 287
440 418 142 57 247 113 322 171 31 24 60 44 63 44 15 0 -6 -83 -34 -138 -32
-63 -121 -169 -191 -229 -25 -21 -95 -76 -157 -121 -311 -230 -424 -462 -368
-751 27 -140 19 -220 -34 -326 -28 -55 -47 -110 -53 -153 -13 -85 -2 -293 18
-319 11 -16 13 1 14 123 0 78 4 165 10 194 12 64 109 249 120 229 18 -32 53
-211 58 -291 2 -48 8 -85 13 -83 4 3 12 27 18 54 13 63 -6 203 -56 396 -19 77
-42 169 -50 205 -28 124 3 285 76 396 52 78 88 120 96 113 3 -4 -1 -33 -11
-65 -26 -90 -22 -164 15 -279 23 -71 33 -121 34 -177 2 -42 5 -80 9 -83 4 -4
12 13 18 36 16 59 8 168 -20 257 -17 56 -21 90 -18 150 6 135 66 227 238 365
41 33 97 81 124 106 l48 46 -5 -75 c-4 -41 -11 -210 -17 -375 -15 -392 -29
-461 -130 -620 -52 -82 -84 -171 -95 -262 -7 -65 10 -79 25 -21 38 144 65 208
122 290 48 68 56 63 57 -29 1 -29 7 -76 13 -105 l13 -53 6 100 c4 55 7 145 8
200 0 55 6 138 13 184 17 127 27 104 101 -249 24 -113 52 -198 62 -188 3 3 -4
52 -14 109 -11 57 -25 145 -31 194 -7 53 -29 139 -53 210 l-41 120 1 168 c1
93 4 172 8 175 14 14 172 -176 223 -268 55 -98 65 -156 60 -320 -5 -126 -4
-141 7 -110 8 19 14 47 14 62 1 35 18 45 37 22 15 -18 15 -18 10 6 -15 61 -18
169 -7 221 12 56 66 159 87 166 7 2 14 -14 17 -37 3 -23 29 -89 59 -147 53
-106 53 -107 52 -197 0 -78 -6 -110 -42 -226 -49 -156 -76 -294 -63 -318 7
-13 12 -6 20 28 10 38 29 107 57 203 3 9 9 15 14 12 19 -11 101 -229 126 -331
14 -60 28 -111 31 -114 11 -10 -7 161 -23 222 -8 35 -29 94 -45 131 -45 101
-52 163 -33 277 10 57 14 126 12 172 -4 67 -11 88 -54 174 -46 92 -49 103 -49
173 1 56 8 99 29 161 15 47 31 118 35 159 l6 74 57 -54 c42 -40 59 -65 68 -98
15 -56 9 -84 -46 -254 -25 -75 -44 -141 -42 -146 2 -5 34 56 72 135 56 119 69
156 74 209 2 36 7 65 10 65 14 0 107 -77 136 -113 115 -143 164 -400 117 -620
-31 -149 -35 -211 -17 -311 20 -112 20 -183 0 -336 -14 -108 -14 -143 0 -129
11 10 46 161 56 241 9 64 9 105 1 157 -17 112 -13 226 14 366 14 72 25 131 25
133 0 1 5 2 10 2 20 0 98 -136 150 -260 57 -136 89 -202 90 -183 0 17 -65 238
-90 306 -12 32 -42 88 -67 125 -65 97 -88 147 -108 232 -54 239 -138 363 -333
494 -157 105 -271 233 -306 345 -20 63 -27 111 -17 111 4 0 33 -22 65 -50 83
-72 172 -122 360 -199 92 -38 186 -82 209 -98 102 -69 182 -178 222 -303 32
-98 91 -222 164 -345 79 -132 117 -236 127 -346 4 -38 10 -72 14 -74 17 -11
20 115 4 191 -20 100 -49 170 -123 303 -43 76 -70 139 -95 226 -19 66 -43 144
-54 173 -11 28 -16 54 -12 57 4 3 56 -13 114 -36 177 -69 230 -135 280 -349
32 -138 56 -204 103 -288 57 -103 219 -262 267 -262 9 0 16 2 16 5 0 3 -29 33
-65 67 -81 75 -149 165 -187 244 -16 34 -49 140 -73 235 -24 96 -47 183 -51
193 -15 40 79 -28 206 -149 78 -74 149 -132 186 -152 97 -52 141 -89 201 -171
65 -87 85 -80 38 13 -43 84 -105 147 -187 190 -65 34 -168 117 -168 134 0 13
208 34 282 29 l73 -5 -40 18 c-33 15 -66 19 -185 19 -138 0 -148 1 -205 29
-33 15 -128 71 -211 124 -186 118 -316 186 -599 317 -121 55 -265 123 -320
150 -130 64 -245 154 -223 175 2 3 69 -9 149 -26 79 -16 194 -39 254 -49 61
-11 137 -24 170 -30 91 -16 207 -79 336 -183 128 -102 190 -135 289 -149 146
-21 178 -32 340 -114 91 -46 169 -84 175 -84 18 0 -89 71 -202 133 -62 34
-113 65 -113 69 0 18 109 43 183 41 54 0 76 2 69 9 -17 17 -146 22 -199 8
-186 -47 -317 -26 -458 75 -33 24 -80 64 -105 90 l-45 48 48 -7 c26 -3 78 -19
115 -35 121 -52 165 -64 262 -68 74 -4 113 0 175 15 173 45 268 38 406 -29 45
-22 84 -37 87 -35 10 10 -125 87 -186 106 -79 25 -200 26 -286 4 -74 -20 -224
-22 -286 -5 -25 7 -88 33 -140 56 -70 33 -116 47 -177 54 -46 6 -109 17 -140
25 -32 8 -154 35 -271 60 -237 51 -403 96 -464 127 -91 46 -172 144 -209 250
-19 55 -22 92 -27 269 -9 389 30 667 116 837 37 72 68 75 282 28 309 -69 678
95 925 410 100 127 326 467 323 484 -3 13 -27 17 -133 23 -72 4 -189 14 -261
23 -155 18 -235 19 -340 4 -151 -21 -334 -93 -476 -188 -259 -174 -406 -461
-344 -674 l16 -57 -39 -78 c-21 -42 -52 -118 -67 -167 l-29 -90 -6 125 c-4 69
-10 269 -14 445 -7 298 -7 323 10 355 10 19 73 91 140 160 132 135 176 193
226 298 102 216 115 536 34 817 -59 204 -122 334 -315 655 -65 107 -134 228
-154 268 -20 39 -42 72 -49 72 -8 0 -18 -24 -25 -59z m76 -1158 c-3 -395 -1
-474 15 -578 20 -137 33 -408 19 -385 -12 20 -38 150 -59 302 -23 166 -23 599
0 873 9 110 17 210 17 223 0 12 2 22 5 22 3 0 4 -206 3 -457z m1017 -1092
c-16 -10 -77 -44 -135 -76 -230 -128 -426 -257 -549 -363 -86 -74 -56 -25 47
76 65 66 125 113 182 147 114 67 450 235 470 235 8 0 2 -8 -15 -19z m-1809
-77 c241 -123 370 -209 477 -315 42 -43 77 -83 77 -89 0 -6 -33 16 -72 50
-105 88 -224 170 -426 293 -165 101 -204 127 -191 127 3 0 64 -30 135 -66z
m849 -2051 c14 -32 53 -105 87 -162 120 -206 150 -303 129 -419 -13 -71 -38
-128 -82 -182 -15 -20 -45 -68 -66 -108 l-39 -72 -24 58 c-34 82 -80 150 -161
237 -39 42 -77 92 -85 111 -23 56 -18 121 17 194 17 36 63 135 101 220 63 140
84 180 93 180 2 0 15 -26 30 -57z"/>
</g>
</svg>
